HIERARCHY
ROOT Spine
{
    OFFSET 0.0 0.0 -0.0
    CHANNELS 6 Xposition Yposition Zposition Zrotation Xrotation Yrotation
    JOINT ShoulderCenter
    {
        OFFSET 0.0 34.9124870300293 0.0
        CHANNELS 3 Zrotation Xrotation Yrotation
        JOINT LeftShoulder
        {
            OFFSET 18.576618194580078 0.0 0.0
            CHANNELS 3 Zrotation Xrotation Yrotation
            JOINT LeftElbow
            {
                OFFSET 29.719470977783203 0.0 0.0
                CHANNELS 3 Zrotation Xrotation Yrotation
                JOINT LeftHand
                {
                    OFFSET 32.92448425292969 0.0 0.0
                    CHANNELS 3 Zrotation Xrotation Yrotation
                    End Site
                    {
                        OFFSET 13.169794082641602 0.0 0.0
                    }
                }
            }
        }
        JOINT RightShoulder
        {
            OFFSET -18.576618194580078 0.0 0.0
            CHANNELS 3 Zrotation Xrotation Yrotation
            JOINT RightElbow
            {
                OFFSET -29.719470977783203 0.0 0.0
                CHANNELS 3 Zrotation Xrotation Yrotation
                JOINT RightHand
                {
                    OFFSET -32.92448425292969 0.0 0.0
                    CHANNELS 3 Zrotation Xrotation Yrotation
                    End Site
                    {
                        OFFSET -13.169794082641602 0.0 0.0
                    }
                }
            }
        }
        End Site
        {
            OFFSET 0.0 13.964996337890625 0.0
        }
    }
    JOINT LeftHip
    {
        OFFSET 17.982437774518207 -17.982437774518207 0.0
        CHANNELS 3 Zrotation Xrotation Yrotation
        JOINT LeftKnee
        {
            OFFSET 0.0 -41.60979461669922 0.0
            CHANNELS 3 Zrotation Xrotation Yrotation
            JOINT LeftFoot
            {
                OFFSET 0.0 -44.418006896972656 0.0
                CHANNELS 3 Zrotation Xrotation Yrotation
                End Site
                {
                    OFFSET 0.0 0.0 17.767200469970703
                }
            }
        }
    }
    JOINT RightHip
    {
        OFFSET -17.982437774518207 -17.982437774518207 0.0
        CHANNELS 3 Zrotation Xrotation Yrotation
        JOINT RightKnee
        {
            OFFSET 0.0 -41.60979461669922 0.0
            CHANNELS 3 Zrotation Xrotation Yrotation
            JOINT RightFoot
            {
                OFFSET 0.0 -44.418006896972656 0.0
                CHANNELS 3 Zrotation Xrotation Yrotation
                End Site
                {
                    OFFSET 0.0 0.0 17.767200469970703
                }
            }
        }
    }
}
MOTION
Frames: 11
Frame Time: 0.03333333333333333
-13.199999809265137 12.800000190734863 2.4000000953674316 -0.16511764342664298 3.1340905093382765 78.44660848325049 -2.2211901624518897e-07 -1.2130665659444848e-07 -8.352884372965399 100.99682206123902 -3.1180304955496942 -151.2326414148771 -6.098261287902176e-06 4.921902053825716e-06 53.09802574847538 8.827812596100317e-32 6.361109362927035e-15 -1.5902773407317588e-15 -113.4266545926126 -39.59523037506565 166.92401225745425 -5.239571357897763e-06 -2.612032340944257e-06 -95.45401323825402 -3.1805546814635168e-15 -8.827812596100317e-32 3.1805546814635168e-15 -2.5001693904659734 -1.3755591675842247 -14.29591266348549 7.543616135843128 3.9386068347801593 -13.414066939801053 -7.951386703658792e-16 1.7586657906293602e-32 -2.53450451179124e-15 -3.4993661664863476 -1.309150354957949 12.69120655292403 -4.934230578738488 -5.82560379078094 -14.04655404548845 3.975693351829396e-16 -7.951386703658792e-16 -1.0187714214062827e-15
-13.09999942779541 12.800000190734863 2.4000000953674316 -0.8255288511734206 2.969145579524376 77.07074083172458 -9.505616878360702e-08 -1.2524030471179704e-08 -8.675778912182452 101.03962158422348 -1.1481391323052619 -147.6223062754725 -4.179644405599462e-07 6.963099468416371e-06 51.03088734591799 1.5902773407317584e-15 -6.3611093629270335e-15 8.827812596100317e-32 -114.06141029707919 -41.29920355053336 165.9450025554777 7.675753616140782e-07 1.4669770664749135e-06 -95.4491852828553 0.0 0.0 0.0 -1.9654544236703917 -2.275339448433771 -12.723153946965278 7.082951999521404 4.284980721630798 -14.511491951918266 -1.551763932908259e-33 1.9878466759146985e-16 8.945310041616142e-16 -3.460950985243968 -1.9261350254637064 11.846738368401398 -4.02104665487508 -6.7272509567247685 -15.554507421130817 -3.975693351829396e-16 -7.951386703658792e-16 -5.317489858071817e-15
-13.0 12.800000190734863 2.4000000953674316 -1.6459771797711868 2.959715891081361 75.70899706218921 1.6849220035831697e-07 7.743847422266054e-08 -8.529951151506673 100.56208762500098 0.6168548531835524 -144.1051966945298 -2.606215400483172e-06 2.1463618096971214e-06 48.085168173406174 -2.3854160110976376e-15 6.3611093629270335e-15 -1.5902773407317582e-15 -114.24810190987493 -42.31088700445948 165.35739712222426 5.9348780754073135e-06 8.207483643924375e-07 -95.41369497070009 -3.1805546814635168e-15 0.0 0.0 -1.398340240776137 -3.1804859267499985 -11.566776795995668 6.6629020935893015 4.423144864349066 -15.027206053537318 -3.975693351829396e-16 1.987846675914698e-16 5.466578358765419e-16 -3.1704522864716016 -2.93683853352517 10.432178010287306 -3.6796463036990366 -7.018552844456553 -15.977876941501703 -3.975693351829396e-16 -1.1927080055488188e-15 -3.80175676768686e-15
-12.899999618530273 12.800000190734863 2.299999952316284 -2.3103916382076997 3.296025821594353 74.60000703563088 -3.612271206689403e-08 -2.085809831492378e-07 -8.917288179397634 100.43739698325393 1.9030246544500606 -141.55510985146987 3.874803329341264e-07 -1.975273991297645e-06 45.15957128716948 1.5902773407317584e-15 -2.2069531490250793e-32 -1.5902773407317584e-15 -114.88427750081742 -43.449436931803454 164.64047081987644 3.839985847141537e-06 8.963274209028957e-07 -95.3358799094369 0.0 6.361109362927035e-15 0.0 -1.1140402323940002 -4.255158432848833 -10.331544812409577 5.900499035155021 5.086281519377765 -17.18525688307046 0.0 0.0 -5.86414769394836e-15 -3.224364047318664 -3.861821916215224 9.333565027408739 -3.3843363918740113 -7.242935473944092 -16.033444854928142 2.4483386496996973e-32 7.951386703658792e-16 -3.528427849748589e-15
-12.800000190734863 12.800000190734863 2.4000000953674316 -2.969453963998147 3.2942816025038852 72.88094966967716 -3.269882095799626e-07 -2.0773294144649954e-07 -8.681463635358181 101.08283294805541 2.753304765146278 -139.93549185106417 -2.7524272931730047e-06 -2.6528421592842447e-06 42.851522563201144 -1.5902773407317584e-15 0.0 0.0 -115.45066021416532 -44.50372852656351 163.54775602892778 -5.5014714521404524e-06 1.0082774968422936e-06 -94.9659551154404 -1.5902773407317588e-15 2.2069531490250793e-32 -1.5902773407317588e-15 -0.48269232414000035 -4.967339620756029 -9.35866200600098 5.400888647049835 5.410289874278873 -18.202172074753932 -1.0043361010211787e-32 -1.987846675914698e-16 -5.789603443601558e-15 -3.084088016447809 -4.492214711348008 8.774881399677191 -2.6038030132313117 -8.060103966165688 -17.212217424654618 -7.95138670365879e-16 -1.2414111463266072e-32 1.789062008323228e-15
-12.600000381469727 12.800000190734863 2.4000000953674316 -3.463244764433387 3.4569344136771107 71.44341375575421 -1.8318862581621022e-07 -2.9796057139923824e-07 -8.610703077487 102.17079729663035 2.8790128289679484 -139.106133889357 -6.168679050604143e-08 5.405566224602991e-06 40.973673102567474 -1.5902773407317584e-15 2.2069531490250793e-32 -1.5902773407317584e-15 -115.6491814056758 -45.37737465581133 162.82308143878433 2.167975268672839e-07 -2.2943041189832004e-06 -94.41537525593218 3.1805546814635168e-15 6.3611093629270335e-15 -1.7655625192200634e-31 -0.09106121650519615 -5.840340701252485 -6.779688770925649 5.034058322098965 5.979409010560475 -20.227388238927613 -7.951386703658794e-16 9.93923337957349e-17 3.727212517340059e-15 -3.320735105945684 -4.912510146950607 7.599876777690986 -1.543882034511624 -8.922596518771956 -18.32057067250717 7.95138670365879e-16 1.1927080055488186e-15 6.460501696722767e-15
-12.399999618530273 12.800000190734863 2.299999952316284 -3.967916856687684 3.9584366393686903 69.99714947245307 3.733063784902011e-09 1.8818431517524454e-07 -8.52471502715133 101.63915645788747 3.7740301294674743 -138.2335128910882 -3.849723683921623e-06 3.4427588293546543e-06 39.465477920898685 3.975693351829396e-15 -6.3611093629270335e-15 2.2069531490250793e-31 -116.53968326411272 -46.32683512822512 161.95530064118927 2.1853066580299463e-06 -4.491273868217577e-06 -94.16669535035525 -3.1805546814635168e-15 4.4139062980501586e-32 -1.5902773407317584e-15 -0.06267416531690656 -6.566151511076167 -6.25660794438126 4.570438334973797 6.485818294710022 -21.78720831216032 -1.9878466759146977e-16 9.939233379573489e-17 7.951386703658791e-16 -4.0831615587410806 -5.259817462040284 7.938125432336725 -0.33037636840328194 -10.023091416698966 -19.680406056128376 6.207055731633036e-33 3.975693351829396e-16 -1.7890620083232284e-15
-12.300000190734863 12.800000190734863 2.299999952316284 -4.462015135117944 4.120204311324536 68.87882821252494 3.2742621114326445e-08 -4.2232096723808635e-07 -8.682568318239445 102.37833391676122 4.036724718448065 -138.52657292778412 2.3123562434917423e-06 -5.966015830546844e-06 39.17132536643364 -7.951386703658792e-16 -6.7586786981099735e-15 -4.689775441678294e-32 -117.0018075942988 -46.92028004624972 160.9438095157349 -2.8013277154817394e-06 1.3268930506732872e-06 -93.66121973105356 -3.1805546814635168e-15 6.3611093629270335e-15 1.7655625192200634e-31 -0.030751632733271028 -7.133942142904267 -5.5276613260123275 4.763117073013721 6.937002538132856 -23.11133935927564 3.9756933518293955e-16 1.1120974852509189e-32 3.2054027649124497e-15 -4.409497381907771 -5.437588200853628 8.388005477566889 0.5721422370232662 -11.160698963539938 -21.215760241904082 -2.793175079234866e-32 -1.1927080055488192e-15 -2.683593012484843e-15
-12.100000381469727 12.800000190734863 2.200000047683716 -4.9697423490513275 4.458141490046728 67.90443415553898 -1.3280885108537782e-07 8.17350818129479e-08 -8.562882920477186 101.41560415645714 4.69198860943229 -138.81615895375302 1.073645701393404e-06 1.3820592439366282e-06 39.69161542736629 0.0 0.0 -4.7708320221952736e-15 -116.99362949002129 -47.171195292162196 160.73166744563804 -3.2929502982491446e-06 8.038584458646273e-07 -93.2591148533806 0.0 0.0 -3.1805546814635168e-15 0.1529610339331503 -7.80342760521057 -4.908448708455144 4.303000712408547 7.2225870559758905 -24.218611414291814 1.8621167194899106e-32 -1.5902773407317582e-15 1.3417965062424209e-15 -4.575000365087628 -6.1606990251060205 7.772173273646547 1.0545384052780462 -11.201302296592846 -20.886508412987652 0.0 0.0 -1.689669674527493e-15
-11.90000057220459 12.800000190734863 2.200000047683716 -5.463842632834282 4.454647002188993 67.06830091916916 1.854289550260708e-07 3.735884604722327e-07 -8.165874045661834 102.30988043447626 3.738623352792432 -139.37897398589024 2.85823102887843e-06 -4.040411592515475e-06 40.68987241271528 -7.951386703658792e-16 0.0 0.0 -116.3075692466555 -47.19668374138677 161.24719661226337 -3.620969134867525e-06 8.105577927614505e-08 -93.25306686103175 1.5902773407317584e-15 -6.3611093629270335e-15 -1.5902773407317584e-15 0.4685053161396172 -8.25241918664806 -4.02280329051951 4.1958925837714585 7.475496447653676 -24.803407492205707 9.939233379573489e-17 2.4848083448933722e-17 -4.969616689786744e-16 -4.229257924847787 -6.809019602224204 6.715280474945496 1.265598610772316 -11.081121425057084 -20.51004444571416 -1.517280289954742e-32 -1.5902773407317584e-15 -1.0933156717530838e-15
-11.699999809265137 12.800000190734863 2.200000047683716 -5.957129935042093 4.61497419594114 66.82435439762257 2.970138210339084e-07 2.9095828286604907e-07 -8.418897571840635 102.21956206900784 3.31008264055915 -139.60611018579152 3.213723042136078e-06 4.560832421193457e-06 41.368581904331 0.0 0.0 3.1805546814635168e-15 -116.40438513402417 -47.54906679352746 161.10683789645643 -1.000511068804818e-06 3.4376230056575464e-06 -92.88235013252128 3.1805546814635164e-15 0.0 0.0 0.48547826507474445 -8.94453839131217 -2.3487492770700302 4.383092498725264 7.673889789699876 -25.421651356284876 -9.939233379573487e-17 -1.185375226527142e-34 1.3666445896913547e-16 -4.288544599007124 -7.398109311132143 5.722005600666279 1.6459143328886428 -10.964913492087952 -20.18408950019086 7.951386703658791e-16 2.896626008095417e-32 4.174478019420865e-15
